<svg width="300" height="240" viewBox="0 0 300 240" xmlns="http://www.w3.org/2000/svg" role="img" aria-label="Blind ballot box v3 (Known Unknown cutout)">
  <title>Blind ballot box v3 — 'Known Unknown' cutout, In aSAFEBOX gradient</title>
  <defs>
    <linearGradient id="av" x1="0" y1="0" x2="1" y2="1">
      <stop offset="0%" stop-color="#FF6A00"/>
      <stop offset="100%" stop-color="#9B5BFF"/>
    </linearGradient>
    <!-- Mask that punches out the words from a filled card -->
    <mask id="cutout">
      <!-- everything white is visible, black is cut out -->
      <rect x="-100" y="-100" width="400" height="400" fill="white"/>
      <text x="0" y="0" transform="translate(150,118) rotate(-14)" text-anchor="middle"
            font-family="Inter, system-ui, -apple-system, Segoe UI, Roboto" font-size="14" font-weight="800" fill="black">
        Known Unknown
      </text>
    </mask>
  </defs>

  <!-- Cube -->
  <g fill="none" stroke="url(#av)" stroke-width="2.2" stroke-linecap="round" stroke-linejoin="round">
    <path d="M60 66 L150 40 L240 66 L150 92 Z"/>
    <path d="M60 66 L60 150 L150 176 L150 92 Z"/>
    <path d="M240 66 L240 150 L150 176 L150 92 Z"/>
  </g>

  <!-- Proper perspective slit -->
  <path d="M128 75 L172 62 L186 66 L142 79 Z" fill="none" stroke="url(#av)" stroke-width="2.2" stroke-linecap="round" stroke-linejoin="round"/>

  <!-- Internal ballot (filled card with masked text to simulate cutout) -->
  <g transform="translate(150,118) rotate(-14)">
    <!-- Filled card with gradient stroke; mask punches the text out -->
    <rect x="-24" y="-32" width="64" height="64" rx="4" fill="white" mask="url(#cutout)"/>
    <rect x="-24" y="-32" width="64" height="64" rx="4" fill="none" stroke="url(#av)" stroke-width="2"/>
  </g>

  <!-- Discontinuous front edge + verticals -->
  <path d="M60 150 L150 176 L240 150" fill="none" stroke="url(#av)" stroke-width="2" stroke-linecap="round" stroke-dasharray="10 10"/>
  <path d="M60 150 L90 160" fill="none" stroke="url(#av)" stroke-width="2" stroke-linecap="round"/>
  <path d="M210 160 L240 150" fill="none" stroke="url(#av)" stroke-width="2" stroke-linecap="round"/>
  <path d="M60 66 L60 150" fill="none" stroke="url(#av)" stroke-width="2" stroke-dasharray="6 8" stroke-linecap="round"/>
  <path d="M240 66 L240 150" fill="none" stroke="url(#av)" stroke-width="2" stroke-dasharray="6 8" stroke-linecap="round"/>

  <ellipse cx="150" cy="200" rx="88" ry="10" fill="#0B1020" opacity="0.07"/>
</svg>