<svg width="260" height="200" viewBox="0 0 260 200" xmlns="http://www.w3.org/2000/svg" role="img" aria-label="Blockgoverning">
  <title>Blockgoverning — brain + smart flags</title>
  
  <defs>
    <linearGradient id="g4" x1="0" y1="0" x2="1" y2="1">
      <stop offset="0%" stop-color="#FF6A00"/>
      <stop offset="100%" stop-color="#9B5BFF"/>
    </linearGradient>
  </defs>
  <g transform="translate(26,32)" fill="none" stroke="#0B1020" stroke-width="5" stroke-linecap="round" stroke-linejoin="round">
    <path d="M46 12q-26 2-26 24 0 12 13 20-13 12 0 24 0 12 18 16 0 16 18 16"/>
    <path d="M66 8q22 12 22 30 0 10-14 18 14 12 0 26"/>
  </g>
  <g transform="translate(26,32)" fill="none" stroke="url(#g4)" stroke-width="5" stroke-linecap="round" stroke-linejoin="round">
    <path d="M110 36H160"/>
    <path d="M110 60H150"/>
    <path d="M110 84H134"/>
    <circle cx="110" cy="36" r="3"/>
    <circle cx="110" cy="60" r="3"/>
    <circle cx="110" cy="84" r="3"/>
  </g>
  <g transform="translate(26,32)" fill="url(#g4)">
    <path d="M160 36l16-6v12z"/>
    <path d="M150 60l14-6v12z"/>
    <path d="M134 84l12-5v10z"/>
  </g>
  <text x="130" y="188" text-anchor="middle" font-family="Inter, system-ui" font-size="20" font-weight="800" fill="url(#g4)">Blockgoverning</text>
</svg>