<svg width="260" height="200" viewBox="0 0 260 200" xmlns="http://www.w3.org/2000/svg" role="img" aria-label="mTLS PQ-ready">
  <title>mTLS PQ-ready — In aSAFEBOX gradient (with microchip)</title>
  
  <defs>
    <linearGradient id="g2" x1="0" y1="0" x2="1" y2="1">
      <stop offset="0%" stop-color="#FF6A00"/>
      <stop offset="100%" stop-color="#9B5BFF"/>
    </linearGradient>
  </defs>
  <g transform="translate(22,54)" fill="none" stroke="url(#g2)" stroke-width="5" stroke-linecap="round" stroke-linejoin="round">
    <rect x="0" y="0" width="56" height="56" rx="8"/>
    <rect x="12" y="12" width="32" height="32" rx="6"/>
    <path d="M-8 8h8M-8 24h8M-8 40h8"/>
    <path d="M56 8h8M56 24h8M56 40h8"/>
    <path d="M8 -8v8M24 -8v8M40 -8v8"/>
    <path d="M8 56v8M24 56v8M40 56v8"/>
  </g>
  <g transform="translate(112,40)" fill="none" stroke="url(#g2)" stroke-width="5" stroke-linecap="round" stroke-linejoin="round">
    <rect x="0" y="40" width="96" height="64" rx="10"/>
    <path d="M24 40v-12a24 24 0 0 1 48 0V40"/>
    <path d="M-24 32h24m-8-8l8 8-8 8"/>
    <path d="M120 72h-24m8-8l-8 8 8 8"/>
    <rect x="62" y="0" width="34" height="20" rx="6"/>
    <text x="79" y="14" text-anchor="middle" font-family="Inter, system-ui" font-size="12" font-weight="800">PQ</text>
  </g>
  <text x="130" y="188" text-anchor="middle" font-family="Inter, system-ui" font-size="20" font-weight="800" fill="url(#g2)">mTLS PQ‑ready</text>
</svg>