<svg width="260" height="200" viewBox="0 0 260 200" xmlns="http://www.w3.org/2000/svg" role="img" aria-label="Signature PQ-ready">
  <title>Signature PQ-ready — In aSAFEBOX gradient</title>
  
  <defs>
    <linearGradient id="g1" x1="0" y1="0" x2="1" y2="1">
      <stop offset="0%" stop-color="#FF6A00"/>
      <stop offset="100%" stop-color="#9B5BFF"/>
    </linearGradient>
  </defs>
  <g transform="translate(28,20)" fill="none" stroke="url(#g1)" stroke-width="5" stroke-linecap="round" stroke-linejoin="round">
    <rect x="0" y="8" width="120" height="128" rx="12"/>
    <path d="M24 40h64M24 64h56"/>
    <path d="M24 104q12 12 24 0t24 0q12 12 24 0"/>
    <path d="M136 64l40 40-18 18-40-40z"/>
    <circle cx="130" cy="70" r="6"/>
    <path d="M168 8l20 6v14c0 18-20 26-20 26s-20-8-20-26V14z"/>
    <text x="168" y="40" text-anchor="middle" font-family="Inter, system-ui" font-size="12" font-weight="800">PQ</text>
  </g>
  <text x="130" y="188" text-anchor="middle" font-family="Inter, system-ui" font-size="20" font-weight="800" fill="url(#g1)">Signature PQ‑ready</text>
</svg>